<svg width="200" height="200" xmlns="http://www.w3.org/2000/svg">
  <style>
    #favicon-logo {
      fill: #000;
    }
    @media (prefers-color-scheme: dark) {
      #favicon-logo {
        fill: #FFF !important;
      }
    }
  </style>
  <g id="favicon-logo" fill-rule="nonzero">
    <path d="M136.064 167.184c-.347-.007-.623-.031-.997-.031-4.73 0-7.136.568-9.461 1.114-2.126.502-4.135.974-8.262.974-4.12 0-6.128-.472-8.254-.974-1.67-.392-3.415-.789-6.003-.985V97.53l56.75 17.429-23.773 52.225ZM92.817 5.176h15.265v21.479H92.817V5.176ZM62.176 108.473l35.643-10.942v69.678c-3.526.128-5.666.59-7.658 1.058-2.126.502-4.135.974-8.254.974-4.12 0-6.121-.472-8.247-.974-2.203-.519-4.547-1.043-8.823-1.095L41.062 114.96l21.114-6.486ZM170.57 172.13c-4.737 0-7.143.568-9.475 1.114-2.126.501-4.142.974-8.276.974-4.128 0-6.143-.473-8.27-.974-2.331-.546-4.737-1.114-9.482-1.114-4.73 0-7.136.568-9.461 1.114-2.126.501-4.135.974-8.262.974-4.12 0-6.128-.473-8.254-.974-2.325-.546-4.73-1.114-9.468-1.114-4.738 0-7.136.568-9.461 1.114-2.126.501-4.135.974-8.254.974-4.12 0-6.121-.473-8.247-.974-2.318-.546-4.723-1.114-9.446-1.114-4.73 0-7.13.568-9.447 1.114-2.118.501-4.12.974-8.232.974-4.127 0-6.128-.473-8.254-.974-2.325-.546-4.723-1.114-9.454-1.114a2.638 2.638 0 0 0-2.633 2.645 2.638 2.638 0 0 0 2.633 2.645c4.12 0 6.121.472 8.247.974 2.325.546 4.723 1.114 9.461 1.114 4.723 0 7.122-.568 9.439-1.114 2.119-.502 4.127-.974 8.24-.974 4.112 0 6.12.472 8.24.974 2.317.546 4.722 1.114 9.453 1.114 4.737 0 7.136-.568 9.46-1.114 2.127-.502 4.135-.974 8.255-.974 4.127 0 6.135.472 8.261.974 2.325.546 4.73 1.114 9.461 1.114 4.738 0 7.144-.568 9.468-1.114 2.127-.502 4.135-.974 8.255-.974 4.134 0 6.15.472 8.276.974 2.332.546 4.738 1.114 9.476 1.114 4.745 0 7.15-.568 9.483-1.114 2.126-.502 4.141-.974 8.269-.974a2.638 2.638 0 0 0 2.633-2.645 2.638 2.638 0 0 0-2.633-2.645ZM170.57 189.465c-4.737 0-7.15.568-9.475 1.118-2.126.502-4.142.974-8.276.974-4.128 0-6.143-.472-8.27-.974-2.331-.55-4.737-1.118-9.482-1.118-4.73 0-7.136.568-9.461 1.118-2.126.502-4.135.974-8.262.974-4.12 0-6.128-.472-8.254-.974-2.325-.55-4.73-1.118-9.468-1.118-4.738 0-7.136.568-9.461 1.118-2.126.502-4.135.974-8.254.974-4.12 0-6.121-.472-8.247-.974-2.318-.55-4.716-1.118-9.446-1.118-4.73 0-7.13.568-9.447 1.118-2.118.502-4.12.974-8.232.974-4.12 0-6.128-.472-8.254-.974-2.325-.55-4.723-1.118-9.454-1.118a2.638 2.638 0 0 0-2.633 2.645 2.638 2.638 0 0 0 2.633 2.645c4.12 0 6.121.472 8.247.974 2.325.55 4.723 1.118 9.461 1.118 4.723 0 7.122-.568 9.439-1.118 2.119-.502 4.127-.974 8.24-.974 4.112 0 6.113.472 8.24.974 2.317.55 4.722 1.118 9.453 1.118 4.737 0 7.136-.568 9.46-1.118 2.127-.502 4.135-.974 8.255-.974 4.127 0 6.135.472 8.261.974 2.325.55 4.73 1.118 9.461 1.118 4.738 0 7.144-.568 9.468-1.118 2.127-.502 4.135-.974 8.255-.974 4.134 0 6.15.472 8.276.974 2.325.55 4.738 1.118 9.476 1.118 4.745 0 7.15-.568 9.483-1.118 2.126-.502 4.141-.974 8.269-.974a2.638 2.638 0 0 0 2.633-2.645 2.638 2.638 0 0 0-2.633-2.645ZM103.704 67c3.521 0 6.722-.237 9.604-.71 2.882-.474 5.33-1.163 7.346-2.07 2.016-.906 3.578-2.028 4.685-3.367 1.107-1.339 1.661-2.882 1.661-4.629 0-.767-.114-1.563-.34-2.387-.228-.825-.682-1.625-1.364-2.4-.68-.776-1.66-1.498-2.938-2.168-1.278-.669-2.967-1.232-5.068-1.69 1.363-.391 2.534-.828 3.513-1.31.98-.481 1.775-1.02 2.385-1.616.61-.596 1.058-1.257 1.342-1.984.284-.726.426-1.547.426-2.46 0-.638-.12-1.307-.362-2.009s-.646-1.392-1.214-2.07c-.568-.677-1.334-1.326-2.3-1.946-.965-.62-2.158-1.168-3.577-1.641-1.42-.474-3.095-.85-5.026-1.127-1.959-.277-4.216-.416-6.771-.416H75v36h28.704Zm.402-21.82H88v-7.984h16.446c1.134 0 2.21.057 3.23.171 1.02.115 1.912.319 2.677.613.765.293 1.367.69 1.806 1.187.44.498.66 1.131.66 1.898 0 .735-.242 1.364-.723 1.886-.482.522-1.12.947-1.913 1.273-.821.343-1.756.588-2.804.735a23.56 23.56 0 0 1-3.273.22Zm.007 15.6H88v-9.674h15.777c1.262 0 2.51.05 3.744.147 1.206.114 2.293.343 3.26.686.968.343 1.747.828 2.336 1.457.589.628.883 1.465.883 2.51 0 .833-.245 1.555-.736 2.167-.491.613-1.178 1.119-2.062 1.519-.883.4-1.928.698-3.134.894a24.727 24.727 0 0 1-3.955.294ZM93.63 91.94c1.706-.516 3.028-1.156 3.965-1.92.937-.762 1.405-1.642 1.405-2.638a3.59 3.59 0 0 0-.288-1.362c-.192-.47-.577-.926-1.153-1.368-.577-.442-1.406-.854-2.487-1.236-1.081-.381-2.51-.702-4.288-.963 1.153-.224 2.144-.473 2.973-.747.829-.275 1.501-.582 2.018-.922.516-.34.895-.716 1.135-1.13.24-.415.36-.883.36-1.404 0-.363-.102-.745-.306-1.145-.204-.4-.547-.793-1.027-1.18-.48-.386-1.13-.756-1.946-1.11-.817-.354-1.826-.665-3.027-.935s-2.619-.484-4.252-.643c-1.658-.158-3.568-.237-5.73-.237H55l.482 31c24.295-7.695 37.011-11.715 38.149-12.06ZM79.595 80.983H65.703v-4.561h14.184c.978 0 1.906.033 2.786.098.88.065 1.65.182 2.31.35.659.168 1.178.394 1.557.678.379.285.568.646.568 1.085 0 .42-.208.778-.623 1.077-.415.298-.965.54-1.65.727a13.97 13.97 0 0 1-2.418.42c-.905.084-1.845.126-2.823.126Zm-.625 9.123H65.703v-5.702H78.69c1.04 0 2.067.029 3.083.087.993.067 1.888.202 2.684.404.797.202 1.438.488 1.923.859.485.37.727.863.727 1.48 0 .49-.202.916-.606 1.277-.404.36-.97.659-1.697.895-.728.235-1.588.41-2.58.526-.994.116-2.079.174-3.256.174ZM113.852 94.299V76.14h20.331v24.512L145 104V73h-42v18.245z"/>
  </g>
</svg>