<?xml version="1.0" encoding="UTF-8"?>
<svg width="200px" height="200px" viewBox="0 0 200 200" version="1.1" xmlns="http://www.w3.org/2000/svg" xmlns:xlink="http://www.w3.org/1999/xlink">
    <!-- Generator: Sketch 63.1 (92452) - https://sketch.com -->
    <title>Artboard</title>
    <desc>Created with Sketch.</desc>
    <g id="Artboard" stroke="none" stroke-width="1" fill="none" fill-rule="evenodd">
        <g id="Group-2" transform="translate(26.000000, 4.000000)" fill="#000000" fill-rule="nonzero">
            <g id="Ship">
                <g id="Group" transform="translate(0.000000, 0.876577)">
                    <path d="M110.063556,162.307215 C109.716876,162.3003 109.441452,162.276317 109.066712,162.276317 C104.33631,162.276317 101.930646,162.844455 99.6058945,163.390444 C97.4797888,163.892172 95.4713903,164.364395 91.3442412,164.364395 C87.2244471,164.364395 85.216042,163.892172 83.0899362,163.390444 C81.4194893,162.998006 79.6754721,162.601891 77.0868059,162.405899 L77.0868059,92.6529271 L133.836982,110.081951 L110.063556,162.307215 Z M66.8167475,0.299653194 L82.0820562,0.299653194 L82.0820562,21.7779972 L66.8167475,21.7779972 L66.8167475,0.299653194 L66.8167475,0.299653194 Z M36.1757713,103.596394 L71.8193528,92.6543181 L71.8193528,162.33212 C68.2931561,162.460779 66.1532539,162.922381 64.1609525,163.390444 C62.0348401,163.892172 60.0264416,164.364395 55.9066475,164.364395 C51.7868534,164.364395 49.78581,163.892172 47.6596976,163.390444 C45.4572608,162.871661 43.1127512,162.347796 38.837081,162.295685 L15.0618215,110.081951 L36.1757713,103.596394 Z" id="Shape"></path>
                    <path d="M144.570521,167.25301 C139.832757,167.25301 137.427094,167.821135 135.094994,168.367136 C132.968888,168.868865 130.953128,169.341074 126.818623,169.341074 C122.691468,169.341074 120.675707,168.868865 118.549602,168.367136 C116.217502,167.821135 113.811838,167.25301 109.066712,167.25301 C104.33631,167.25301 101.930646,167.821135 99.6058945,168.367136 C97.4797888,168.868865 95.4713903,169.341074 91.3442412,169.341074 C87.2244471,169.341074 85.216042,168.868865 83.0899362,168.367136 C80.7651978,167.821135 78.3595273,167.25301 73.6217635,167.25301 C68.8839996,167.25301 66.4856908,167.821135 64.1609524,168.367136 C62.03484,168.868865 60.0264416,169.341074 55.9066475,169.341074 C51.7868533,169.341074 49.7858099,168.868865 47.6596975,168.367136 C45.3423142,167.821135 42.9366504,167.25301 38.2135966,167.25301 C33.483191,167.25301 31.084879,167.821135 28.7674956,168.367136 C26.6487449,168.868865 24.6477015,169.341074 20.5352624,169.341074 C16.4081099,169.341074 14.4070665,168.868865 12.2809574,168.367136 C9.95621571,167.821135 7.55790863,167.25301 2.82749977,167.25301 C1.37085909,167.25301 0.193774798,168.437237 0.193774798,169.898137 C0.193774798,171.35905 1.37085905,172.543278 2.82749977,172.543278 C6.94729553,172.543278 8.94833899,173.015487 11.074448,173.517216 C13.3991898,174.063217 15.7974985,174.631342 20.5352624,174.631342 C25.2583129,174.631342 27.6566216,174.063217 29.9740083,173.517216 C32.092759,173.015487 34.1011575,172.543278 38.2135965,172.543278 C42.3260356,172.543278 44.334434,173.015487 46.4531847,173.517216 C48.7705747,174.063217 51.1762385,174.631342 55.9066474,174.631342 C60.6444113,174.631342 63.0427201,174.063217 65.3674584,173.517216 C67.4935708,173.015487 69.5019693,172.543278 73.6217634,172.543278 C77.7489192,172.543278 79.7573177,173.015487 81.8834234,173.517216 C84.2081685,174.063217 86.6138323,174.631342 91.3442411,174.631342 C96.0819984,174.631342 98.4876755,174.063217 100.812414,173.517216 C102.93852,173.015487 104.946918,172.543278 109.066712,172.543278 C113.20123,172.543278 115.216977,173.015487 117.343096,173.517216 C119.675182,174.063217 122.080859,174.631342 126.818623,174.631342 C131.563736,174.631342 133.969399,174.063217 136.3015,173.517216 C138.427619,173.015487 140.443365,172.543278 144.570521,172.543278 C146.027165,172.543278 147.204251,171.35905 147.204251,169.898137 C147.204251,168.437237 146.027165,167.25301 144.570521,167.25301 Z" id="Path"></path>
                    <path d="M144.570521,184.588419 C139.832757,184.588419 137.419732,185.156543 135.094994,185.706237 C132.968888,186.207965 130.953128,186.680174 126.818623,186.680174 C122.691468,186.680174 120.675707,186.207965 118.549602,185.706237 C116.217502,185.156543 113.811838,184.588419 109.066712,184.588419 C104.33631,184.588419 101.930646,185.156543 99.6058945,185.706237 C97.4797888,186.207965 95.4713903,186.680174 91.3442412,186.680174 C87.2244471,186.680174 85.216042,186.207965 83.0899362,185.706237 C80.7651978,185.156543 78.3595273,184.588419 73.6217635,184.588419 C68.8839996,184.588419 66.4856908,185.156543 64.1609524,185.706237 C62.03484,186.207965 60.0264416,186.680174 55.9066475,186.680174 C51.7868533,186.680174 49.7858099,186.207965 47.6596975,185.706237 C45.3423142,185.156543 42.9440054,184.588419 38.2135966,184.588419 C33.4831877,184.588419 31.084879,185.156543 28.7674956,185.706237 C26.6487449,186.207965 24.6477015,186.680174 20.5352624,186.680174 C16.4154683,186.680174 14.4070665,186.207965 12.2809574,185.706237 C9.95621571,185.156543 7.55790863,184.588419 2.82749977,184.588419 C1.37085909,184.588419 0.193774798,185.772633 0.193774798,187.233546 C0.193774798,188.694459 1.37085905,189.878687 2.82749977,189.878687 C6.94729553,189.878687 8.94833899,190.350896 11.074448,190.852624 C13.3991898,191.402304 15.7974986,191.970442 20.5352625,191.970442 C25.2583129,191.970442 27.6566217,191.402304 29.9740084,190.852624 C32.0927591,190.350896 34.1011576,189.878687 38.2135966,189.878687 C42.3260357,189.878687 44.3270791,190.350896 46.4531848,190.852624 C48.7705749,191.402304 51.1762386,191.970442 55.9066475,191.970442 C60.6444114,191.970442 63.0427202,191.402304 65.3674585,190.852624 C67.4935709,190.350896 69.5019694,189.878687 73.6217635,189.878687 C77.7489193,189.878687 79.7573178,190.350896 81.8834235,190.852624 C84.2081686,191.402304 86.6138324,191.970442 91.3442412,191.970442 C96.0819985,191.970442 98.4876756,191.402304 100.812414,190.852624 C102.93852,190.350896 104.946918,189.878687 109.066712,189.878687 C113.20123,189.878687 115.216977,190.350896 117.343096,190.852624 C119.667834,191.402304 122.08086,191.970442 126.818623,191.970442 C131.563736,191.970442 133.9694,191.402304 136.3015,190.852624 C138.427619,190.350896 140.443365,189.878687 144.570521,189.878687 C146.027165,189.878687 147.204251,188.694459 147.204251,187.233546 C147.204251,185.772633 146.027165,184.588419 144.570521,184.588419 Z" id="Path"></path>
                </g>
            </g>
            <path d="M77.7043407,63 C81.2249522,63 84.4261534,62.7632653 87.3079443,62.2897959 C90.1897352,61.8163265 92.6385476,61.1265306 94.6543817,60.2204082 C96.6702157,59.3142857 98.2317772,58.1918367 99.3390663,56.8530612 C100.446355,55.5142857 101,53.9714286 101,52.2244898 C101,51.4571429 100.886432,50.6612245 100.659296,49.8367347 C100.432159,49.0122449 99.977887,48.2122449 99.2964783,47.4367347 C98.6150696,46.6612245 97.6355446,45.9387755 96.3579034,45.2693878 C95.0802621,44.6 93.3909364,44.0367347 91.2899263,43.5795918 C92.6527437,43.1877551 93.8239148,42.7510204 94.8034398,42.2693878 C95.7829648,41.7877551 96.5779416,41.2489796 97.1883702,40.6530612 C97.7987988,40.0571429 98.2459732,39.3959184 98.5298935,38.6693878 C98.8138138,37.9428571 98.955774,37.122449 98.955774,36.2081633 C98.955774,35.5714286 98.8351078,34.9020408 98.5937756,34.2 C98.3524434,33.4979592 97.9478569,32.8081633 97.3800164,32.1306122 C96.8121758,31.4530612 96.045591,30.8040816 95.0802621,30.1836735 C94.1149331,29.5632653 92.9224679,29.0163265 91.5028665,28.5428571 C90.0832651,28.0693878 88.4081354,27.6938776 86.4774775,27.4163265 C84.5184275,27.1387755 82.2612613,27 79.7059787,27 L79.7059787,27 L49,27 L49,63 L77.7043407,63 Z M78.10632,41.1795918 L62,41.1795918 L62,33.1959184 L78.4462951,33.1959184 C79.5795455,33.1959184 80.6561333,33.2530612 81.6760585,33.3673469 C82.6959838,33.4816327 83.5884184,33.6857143 84.3533624,33.9795918 C85.1183064,34.2734694 85.7203456,34.6693878 86.1594801,35.1673469 C86.5986146,35.6653061 86.8181818,36.2979592 86.8181818,37.0653061 C86.8181818,37.8 86.5773661,38.4285714 86.0957347,38.9510204 C85.6141034,39.4734694 84.9766501,39.8979592 84.1833748,40.2244898 C83.3617684,40.5673469 82.4268369,40.8122449 81.3785803,40.9591837 C80.3303238,41.1061224 79.2395704,41.1795918 78.10632,41.1795918 L78.10632,41.1795918 Z M78.1132686,56.7795918 L62,56.7795918 L62,47.1061224 L77.776699,47.1061224 C79.038835,47.1061224 80.2869471,47.155102 81.5210356,47.2530612 C82.7270766,47.3673469 83.8139159,47.5959184 84.7815534,47.9387755 C85.7491909,48.2816327 86.5275081,48.7673469 87.1165049,49.3959184 C87.7055016,50.0244898 88,50.8612245 88,51.9061224 C88,52.7387755 87.7545847,53.4612245 87.263754,54.0734694 C86.7729234,54.6857143 86.0857605,55.1918367 85.2022654,55.5918367 C84.3187702,55.9918367 83.2740022,56.2897959 82.0679612,56.4857143 C80.8619202,56.6816327 79.5436893,56.7795918 78.1132686,56.7795918 L78.1132686,56.7795918 Z" id="В"></path>
            <path d="M67.6306306,87.9407161 C69.3363363,87.4240877 70.6576577,86.78412 71.5945946,86.0208131 C72.5315315,85.2575062 73,84.3778415 73,83.3818191 C73,82.9443139 72.9039039,82.4905186 72.7117117,82.0204333 C72.5195195,81.5503479 72.1351351,81.0942255 71.5585586,80.652066 C70.981982,80.2099066 70.1531532,79.7980001 69.0720721,79.4163466 C67.990991,79.0346932 66.5615616,78.7135458 64.7837838,78.4529044 C65.9369369,78.2294975 66.9279279,77.9804919 67.7567568,77.7058876 C68.5855856,77.4312833 69.2582583,77.1240988 69.7747748,76.7843341 C70.2912913,76.4445695 70.6696697,76.0675703 70.9099099,75.6533367 C71.1501502,75.2391031 71.2702703,74.7713449 71.2702703,74.2500621 C71.2702703,73.8870259 71.1681682,73.5053725 70.963964,73.1051018 C70.7597598,72.7048311 70.4174174,72.3115418 69.9369369,71.9252341 C69.4564565,71.5389263 68.8078078,71.1689086 67.990991,70.815181 C67.1741742,70.4614535 66.1651652,70.1496147 64.963964,69.8796647 C63.7627628,69.6097147 62.3453453,69.3956164 60.7117117,69.2373698 C59.0540541,69.0791233 57.1441441,69 54.981982,69 L29,69 L29.4819717,100 C53.7772739,92.3048964 66.4934935,88.2851351 67.6306306,87.9407161 Z M53.5942244,76.9821423 L39.7027027,76.9821423 L39.7027027,72.4209181 L53.8874491,72.4209181 C54.8648649,72.4209181 55.7934098,72.4535649 56.673084,72.5188585 C57.5527582,72.5841521 58.3224732,72.7007478 58.9822288,72.8686457 C59.6419845,73.0365435 60.1612366,73.2627392 60.5399852,73.5472327 C60.9187338,73.8317262 61.1081081,74.1931729 61.1081081,74.6315728 C61.1081081,75.0513173 60.9004073,75.4104321 60.4850056,75.7089172 C60.0696039,76.0074022 59.5198075,76.2499212 58.8356164,76.4364744 C58.12699,76.6323552 57.320622,76.77227 56.4165124,76.8562189 C55.5124028,76.9401679 54.5716401,76.9821423 53.5942244,76.9821423 L53.5942244,76.9821423 Z M52.9685122,86.1045907 L39.7027027,86.1045907 L39.7027027,80.4030604 L52.6914196,80.4030604 C53.7305169,80.4030604 54.7580687,80.4319289 55.774075,80.489666 C56.7669903,80.5570258 57.6617686,80.6917455 58.4584099,80.8938251 C59.2550512,81.0959046 59.8958279,81.382184 60.38074,81.7526632 C60.8656521,82.1231423 61.1081081,82.6163127 61.1081081,83.2321742 C61.1081081,83.7229388 60.9060614,84.1487493 60.501968,84.5096056 C60.0978746,84.870462 59.5321438,85.1687699 58.8047756,85.4045294 C58.0774075,85.6402888 57.2172658,85.8159056 56.2243506,85.9313796 C55.2314353,86.0468536 54.1461559,86.1045907 52.9685122,86.1045907 L52.9685122,86.1045907 Z" id="В"></path>
            <polygon id="П" points="87.852349 90.2987158 87.852349 72.1401081 108.182886 72.1401081 108.182886 96.6524216 119 100 119 69 77 69 77 87.2448967"></polygon>
        </g>
    </g>
</svg>